Coordinates
version=1
nRows=21
nColumns=33
inDegrees=yes

Units are S.I. units (second, meters, Newtons, ...)
Angles are in degrees.

endheader
time	ground_thorax_rot_x	ground_thorax_rot_y	ground_thorax_rot_z	ground_thorax_tx	ground_thorax_ty	ground_thorax_tz	clav_prot_r	clav_elev_r	scapula_abduction_r	scapula_elevation_r	scapula_upward_rot_r	scapula_winging_r	shoulder_elv_r	plane_of_elev_r	axial_rot_r	elbow_flexion_r	pro_sup_r	wrist_flex_r	wrist_dev_r	clav_prot_l	clav_elev_l	scapula_abduction_l	scapula_elevation_l	scapula_upward_rot_l	scapula_winging_l	shoulder_elv_l	plane_of_elev_l	axial_rot_l	elbow_flexion_l	pro_sup_l	wrist_flex_l	wrist_dev_l
      1.60000000	    -15.26252457	    -29.67139150	     56.05180825	     88.23094093	    785.12552073	    -33.20663132	     28.48501400	    -45.00000000	     40.05559780	    -45.00000000	    -45.00000000	  -4060.56788678	  -4068.49933251	    160.53373274	     38.47801118	   1081.03865837	   -193.75692417	     10.08106369	     12.31856036	     -2.41409514	     28.27810614	    -25.69276311	    -43.93007405	    -45.00000000	  -2803.48211907	  -3692.85982779	    133.93332555	   -103.43918910	    710.23428871	     55.94710156	     10.58484787	    -16.29565697
      1.61000000	    -15.40688752	    -29.47952372	     55.83523234	     88.04797017	    784.70265139	    -33.20612198	     28.59525723	    -45.00000000	     40.02033987	    -45.00000000	    -45.00000000	  -4060.58133011	  -4068.32254553	    160.56256485	     38.88917101	   1080.97625929	   -193.55808875	     10.41105596	     12.43921861	     -2.78842989	     27.85573537	    -25.73224259	    -43.67573342	    -45.00000000	  -2803.13497290	  -3692.69514925	    133.72341698	   -103.39561875	    710.19858243	     56.39713898	     10.31202455	    -16.19359355
      1.62000000	    -15.49028747	    -29.36044453	     55.81836522	     87.72794818	    784.30833513	    -33.17239256	     28.49307853	    -45.00000000	     40.03793508	    -45.00000000	    -45.00000000	  -4060.71060542	  -4068.38407440	    160.53498780	     38.78381728	   1081.11303790	   -193.68248032	     10.17397058	     12.30567981	     -2.35337693	     28.06037947	    -25.79944628	    -43.73921048	    -45.00000000	  -2803.29754954	  -3692.76623965	    134.01318832	   -103.63237228	    710.28705134	     56.69147209	     10.53281374	    -16.41134597
      1.63000000	    -15.73171976	    -29.22444220	     55.55021788	     87.27479236	    783.93671393	    -33.10665065	     28.57919427	    -45.00000000	     39.94699098	    -45.00000000	    -45.00000000	  -4060.52690397	  -4068.20564361	    160.66028840	     39.24491628	   1081.16683003	   -193.91532386	     10.55411281	     12.50410348	     -2.78171132	     27.90991209	    -25.82460292	    -43.80031135	    -45.00000000	  -2803.04171353	  -3692.79884837	    133.71527789	   -103.84279587	    710.24804501	     56.87075286	     10.23711379	    -16.23664612
      1.64000000	    -16.82626491	    -31.85105276	     57.78852063	     90.83349655	    774.25265873	    -46.87897831	     29.00326565	    -45.00000000	     39.90047790	    -45.00000000	    -45.00000000	  -4060.66598316	  -4068.27732609	    161.51377845	     42.63951958	   1081.08485566	   -194.30332405	     10.39584676	     12.66010322	     -1.34380504	     29.39303438	    -25.51914094	    -45.00000000	    -45.00000000	  -2801.80539412	  -3691.78921952	    133.77009505	   -105.71565724	    712.53586975	     65.17209253	     10.75913408	    -16.12859522
      1.65000000	    -17.54788378	    -31.44934600	     57.20256655	     89.70693312	    773.26602910	    -46.34645994	     28.40152141	    -45.00000000	     39.58740236	    -45.00000000	    -45.00000000	  -4060.57987703	  -4068.34420911	    161.47739683	     42.78989766	   1081.15341877	   -194.47516215	     10.42264247	     12.72919308	     -1.18318111	     29.57872313	    -25.71709246	    -45.00000000	    -45.00000000	  -2801.73386765	  -3691.66371844	    133.71643514	   -105.27935662	    711.83749293	     64.04520632	     10.09266528	    -16.60833053
      1.66000000	    -17.76564421	    -31.25086569	     57.17310994	     88.57709467	    772.43441094	    -45.95420754	     28.63952425	    -45.00000000	     39.42184768	    -45.00000000	    -45.00000000	  -4060.55817533	  -4068.20915807	    161.53834066	     42.81183146	   1081.25389546	   -194.64649374	     10.46081463	     12.61283797	     -1.12492366	     29.34462021	    -25.55344828	    -45.00000000	    -45.00000000	  -2801.84122996	  -3691.64049997	    133.87572421	   -105.18099246	    711.66459185	     62.10484172	     10.54723010	    -16.04215540
      1.67000000	    -17.89767307	    -31.16736755	     57.06819609	     87.41310540	    771.70340803	    -45.66393403	     28.68435931	    -45.00000000	     39.56622884	    -45.00000000	    -45.00000000	  -4060.55628220	  -4068.15609602	    161.56754966	     43.01634511	   1081.28405275	   -194.78267786	     10.48746245	     12.61981862	     -1.09347488	     29.52939530	    -25.49506175	    -45.00000000	    -45.00000000	  -2801.72268824	  -3691.75867213	    134.02975950	   -105.29060060	    711.06470272	     59.08787119	     10.53033295	    -15.87258273
      1.68000000	    -18.16408320	    -31.02089879	     56.97104164	     86.19799679	    771.05058252	    -45.44690074	     28.69250204	    -45.00000000	     39.59666971	    -45.00000000	    -45.00000000	  -4060.64774120	  -4068.11337201	    161.67062420	     43.19660827	   1081.20222763	   -194.87549533	     10.56983948	     12.62898484	     -1.10159903	     29.50071053	    -25.50561512	    -45.00000000	    -45.00000000	  -2801.62990949	  -3691.79847328	    134.12102857	   -105.39238636	    710.81403863	     55.93031962	     10.85856978	    -15.48955792
      1.69000000	    -18.59170397	    -30.80352101	     56.65272327	     84.90325553	    770.47092568	    -45.27652592	     28.70457502	    -45.00000000	     39.33937499	    -45.00000000	    -45.00000000	  -4060.82832110	  -4068.17182397	    161.41622460	     43.50945365	   1081.25280421	   -194.88809878	     10.61519769	     12.62350119	     -1.28790460	     29.39261000	    -25.60257513	    -45.00000000	    -45.00000000	  -2801.12518009	  -3691.68256262	    133.67388702	   -105.35993557	    710.30910530	     53.49007508	     11.52044939	    -15.27845358
      1.70000000	    -18.70878745	    -30.63447256	     56.59553878	     83.50455292	    769.95932207	    -45.12475778	     28.62598868	    -45.00000000	     39.41601010	    -45.00000000	    -45.00000000	  -4060.76973884	  -4067.93441880	    161.63700174	     43.29309765	   1081.11792960	   -194.94722390	     10.73344842	     12.55199833	     -1.05462814	     29.18756240	    -25.77822392	    -45.00000000	    -45.00000000	  -2801.26013090	  -3691.87927422	    134.10977670	   -105.57560384	    709.93474869	     51.21520662	     11.34138210	    -14.69624723
      1.71000000	    -18.85877538	    -30.51955343	     56.44303937	     82.02556154	    769.59083653	    -45.03519142	     28.77524383	    -45.00000000	     39.51481967	    -45.00000000	    -45.00000000	  -4060.75049310	  -4067.85186967	    161.63059585	     43.43723914	   1081.26536462	   -194.92561383	     10.73296228	     12.53230379	     -1.05628712	     29.60710970	    -25.60563620	    -45.00000000	    -45.00000000	  -2801.29266632	  -3691.76916175	    134.15768615	   -105.84491957	    709.85765864	     48.92561362	     11.63587037	    -14.43961647
      1.72000000	    -19.24101518	    -30.32573321	     56.01799511	     80.45300959	    769.33335400	    -44.98250393	     28.74019386	    -45.00000000	     39.38271453	    -45.00000000	    -45.00000000	  -4060.75503086	  -4067.86756000	    161.50534942	     43.44762799	   1081.37675406	   -194.91379931	     10.74763100	     12.50606423	     -1.06879563	     29.33480498	    -25.72170243	    -45.00000000	    -45.00000000	  -2800.99484371	  -3691.77180051	    133.95750374	   -106.13337859	    709.82896788	     47.46582684	     11.69647207	    -14.23721323
      1.73000000	    -19.29994181	    -30.14463551	     55.94460082	     78.78616766	    769.16897852	    -44.96310944	     28.76489328	    -45.00000000	     39.43113055	    -45.00000000	    -45.00000000	  -4060.83495398	  -4067.66960721	    161.59213078	     43.34585898	   1081.26796212	   -194.90759499	     10.83258173	     12.48870817	     -0.96953125	     29.65481607	    -25.79177441	    -45.00000000	    -45.00000000	  -2801.06076226	  -3691.71843538	    134.16711977	   -106.38679628	    709.64043155	     46.50304483	     11.81624649	    -14.09543504
      1.74000000	    -19.50711344	    -29.96834058	     55.66608003	     77.00895710	    769.05071378	    -44.95054553	     28.73864875	    -45.00000000	     39.39959186	    -45.00000000	    -45.00000000	  -4060.85462131	  -4067.57291162	    161.55248145	     43.33938088	   1081.29194533	   -194.86829244	     10.87108340	     12.46386916	     -0.94833300	     29.63062319	    -25.87980547	    -45.00000000	    -45.00000000	  -2800.92913062	  -3691.71028215	    134.18249406	   -106.69495851	    709.64688609	     46.03264537	     11.79408683	    -14.01802986
      1.75000000	    -19.67929077	    -29.81295899	     55.44371500	     75.14185278	    768.94930089	    -44.93138076	     28.74933476	    -45.00000000	     39.39893052	    -45.00000000	    -45.00000000	  -4060.92462999	  -4067.48310788	    161.52777576	     43.35877101	   1081.29655097	   -194.79921146	     10.91061366	     12.45056825	     -0.93771406	     29.72319260	    -25.96988344	    -45.00000000	    -45.00000000	  -2800.76812655	  -3691.66759487	    134.20840950	   -106.93868750	    709.65247459	     45.84835422	     11.80115215	    -14.00921674
      1.76000000	    -19.81160252	    -29.67516851	     55.25364790	     73.19806904	    768.85108893	    -44.90152540	     28.76775282	    -45.00000000	     39.42522055	    -45.00000000	    -45.00000000	  -4061.01376058	  -4067.38003702	    161.49205881	     43.42391999	   1081.31180900	   -194.69016337	     10.94064306	     12.43882656	     -0.93128122	     29.79662552	    -26.02599648	    -45.00000000	    -45.00000000	  -2800.62011387	  -3691.65091292	    134.25358534	   -107.20457894	    709.67594758	     45.81714651	     11.80867713	    -14.02193048
      1.77000000	    -20.07803541	    -29.45372596	     54.87075931	     71.18577517	    768.76354583	    -44.86450051	     28.71768573	    -45.00000000	     39.37237601	    -45.00000000	    -45.00000000	  -4061.00832907	  -4067.28621657	    161.42295623	     43.40359564	   1081.36580543	   -194.56679727	     10.97027076	     12.42184506	     -0.91383841	     29.75817312	    -26.11870447	    -45.00000000	    -45.00000000	  -2800.49226909	  -3691.63994556	    134.22654081	   -107.51414918	    709.75551977	     45.87454845	     11.73721610	    -13.99580782
      1.78000000	    -20.43726246	    -29.30508475	     54.43276149	     69.10594602	    768.69138097	    -44.82014547	     28.67432328	    -45.00000000	     39.29890612	    -45.00000000	    -45.00000000	  -4061.08497069	  -4067.37795561	    161.26168531	     43.50019734	   1081.54423740	   -194.37830966	     10.92726979	     12.43665794	     -0.95311326	     29.55268027	    -26.26522902	    -45.00000000	    -45.00000000	  -2800.10560679	  -3691.60219437	    134.03665205	   -107.69419130	    709.94560258	     45.95530040	     11.69311933	    -14.03162534
      1.79000000	    -20.51092751	    -29.15149683	     54.27320774	     66.94779923	    768.65094773	    -44.77583651	     28.70120667	    -45.00000000	     39.32294229	    -45.00000000	    -45.00000000	  -4061.16278390	  -4067.13235174	    161.33014425	     43.41501425	   1081.36859633	   -194.20624894	     11.04183753	     12.42797187	     -0.87090884	     29.86968383	    -26.25566876	    -45.00000000	    -45.00000000	  -2800.19676576	  -3691.53972582	    134.25031255	   -108.00778848	    709.89160018	     46.08889003	     11.71583026	    -14.02264972
      1.80000000	    -20.68195305	    -28.98770805	     54.03339511	     64.71186046	    768.64635589	    -44.72920483	     28.68399676	    -45.00000000	     39.33652500	    -45.00000000	    -45.00000000	  -4061.24239908	  -4067.03446850	    161.33224714	     43.35781594	   1081.36393178	   -193.98857092	     11.09860570	     12.43642486	     -0.86242943	     29.92767853	    -26.33958809	    -45.00000000	    -45.00000000	  -2800.09496161	  -3691.52900459	    134.33891127	   -108.27157647	    709.92849501	     46.22285443	     11.70999355	    -14.04688500
